<svg xmlns="http://www.w3.org/2000/svg" width="192" height="192" viewBox="0 0 69.447 69.447">
  <!-- Tennis ball background -->
  <path d="M69.439,34.724a34.719,34.719,0,1,1-34.72-34.724A34.724,34.724,0,0,1,69.439,34.724Z" fill="#b9d613"></path>
  
  <!-- Tennis ball seam pattern - exactly as in example -->
  <path d="M39.375,0.345a35.139,35.139,0,0,0-4.61-.344,41.069,41.069,0,0,1-34.369,29.735,34.3,34.3,0,0,0-.381,4.635l.183-.026a45.921,45.921,0,0,0,39.149-33.881Zm29.721,34.692a45.487,45.487,0,0,0-33.488,34.054l-.071.313a34.54,34.54,0,0,0,4.818-.455,41.218,41.218,0,0,1,28.686-29.194,36.059,36.059,0,0,0,.388-4.8Z" fill="#f7f7f7"></path>
  
  <!-- J letter in sans-serif font -->
  <text x="34.724" y="45" font-family="Arial, Helvetica, sans-serif" font-size="28" 
        font-weight="bold" fill="white" text-anchor="middle">J</text>
</svg> 